<svg width="16" height="16" viewBox="0 0 16 16" fill="none" xmlns="http://www.w3.org/2000/svg">
<path d="M4.75 8.96289H11.2246L8.71094 14.168C8.66016 14.3203 8.55859 14.4219 8.40625 14.5234C8.2793 14.5996 8.15234 14.625 8 14.625C7.82227 14.625 7.69531 14.5996 7.56836 14.5234C7.41602 14.4219 7.31445 14.3203 7.26367 14.168L4.75 8.96289ZM12.1133 5.78906C12.2656 5.86523 12.3926 5.94141 12.4941 6.06836C12.6211 6.16992 12.6973 6.32227 12.7734 6.44922C12.8242 6.60156 12.8496 6.75391 12.875 6.93164C12.875 7.08398 12.8242 7.23633 12.7734 7.38867C12.6973 7.54102 12.6211 7.66797 12.5195 7.79492C12.3926 7.89648 12.2656 7.99805 12.1133 8.04883C11.9609 8.09961 11.8086 8.15039 11.6562 8.15039H4.31836C4.01367 8.15039 3.68359 8.02344 3.45508 7.79492C3.25195 7.56641 3.09961 7.23633 3.125 6.93164C3.125 6.60156 3.25195 6.29688 3.48047 6.06836C3.70898 5.83984 4.01367 5.71289 4.34375 5.71289H4.36914C4.34375 5.56055 4.34375 5.43359 4.34375 5.28125C4.34375 4.31641 4.72461 3.40234 5.41016 2.7168C6.0957 2.03125 7.00977 1.625 7.97461 1.625C8.96484 1.625 9.87891 2.03125 10.5645 2.7168C11.25 3.40234 11.6309 4.31641 11.6309 5.28125C11.6309 5.43359 11.6309 5.56055 11.6055 5.71289H11.6309C11.8086 5.71289 11.9609 5.73828 12.1133 5.78906Z" fill="#F88070"/>
</svg>
